<svg width="190" height="180" viewBox="0 0 190 180" fill="none" xmlns="http://www.w3.org/2000/svg">
  <defs>
    <linearGradient id="cyberpunk" x1="0%" y1="0%" x2="100%" y2="100%">
      <stop offset="0%" stop-color="#00d4ff" />
      <stop offset="100%" stop-color="#9B59B6" />
    </linearGradient>
    <filter id="glow" x="-20%" y="-20%" width="140%" height="140%">
      <feGaussianBlur stdDeviation="2" result="coloredBlur"/>
      <feMerge>
        <feMergeNode in="coloredBlur"/>
        <feMergeNode in="SourceGraphic"/>
      </feMerge>
    </filter>
  </defs>
  <g filter="url(#glow)">
    <animateTransform attributeName="transform" type="translate" values="0 0; 0 -5; 0 0" dur="4s" repeatCount="indefinite" />
    <path d="M190 90V150H185.075C176.099 104.957 165 90 165 90H190Z" fill="url(#cyberpunk)" opacity="0.8"/>
    <path d="M190 30.0001H105.5C105.5 30.0001 120.5 38.0001 133.358 50.0001H190V42H137.5C135 40 132 38 132 38H190V30.0001Z" fill="url(#cyberpunk)" opacity="0.9"/>
    <path d="M190 60.0001H144C144 60.0001 153.5 68.5001 160 80.0001H190L190 72H164C162.5 69.5 161 68 161 68H190L190 60.0001Z" fill="url(#cyberpunk)" opacity="0.9"/>
    <path d="M-1.52588e-05 0H190L190 8H78C78 8 82.5 9 90 12H190L190 20H86C45 1.50008 -1.52588e-05 0 -1.52588e-05 0Z" fill="url(#cyberpunk)"/>
  </g>
</svg>
