<svg width="190" height="180" viewBox="0 0 190 180" fill="none" xmlns="http://www.w3.org/2000/svg">
  <defs>
    <linearGradient id="cyberpunk" x1="0%" y1="0%" x2="100%" y2="100%">
      <stop offset="0%" stop-color="#9B59B6" />
      <stop offset="100%" stop-color="#00d4ff" />
    </linearGradient> /* Reversed gradient direction for symmetry */
    <filter id="glow" x="-20%" y="-20%" width="140%" height="140%">
      <feGaussianBlur stdDeviation="2" result="coloredBlur"/>
      <feMerge>
        <feMergeNode in="coloredBlur"/>
        <feMergeNode in="SourceGraphic"/>
      </feMerge>
    </filter>
  </defs>
  <g filter="url(#glow)">
    <animateTransform attributeName="transform" type="translate" values="0 0; 0 -5; 0 0" dur="4s" repeatCount="indefinite" />
    <path d="M6.10352e-05 90V150H4.92516C13.9015 104.957 25.0001 90 25.0001 90H6.10352e-05Z" fill="url(#cyberpunk)" opacity="0.8"/>
    <path d="M6.10352e-05 30.0001H84.5001C84.5001 30.0001 69.5001 38.0001 56.6423 50.0001H6.10352e-05V42H52.5001C55 40 58.0001 38 58.0001 38H6.10352e-05V30.0001Z" fill="url(#cyberpunk)" opacity="0.9"/>
    <path d="M6.10352e-05 60.0001H46.0001C46.0001 60.0001 36.5001 68.5001 30.0001 80.0001H6.10352e-05L4.57764e-05 72H26C27.5 69.5 29 68 29 68H3.05176e-05L6.10352e-05 60.0001Z" fill="url(#cyberpunk)" opacity="0.9"/>
    <path d="M190 0H4.57764e-05L6.10352e-05 8H112C112 8 107.5 9 100 12H6.10352e-05L4.57764e-05 20H104C145 1.50008 190 0 190 0Z" fill="url(#cyberpunk)"/>
  </g>
</svg>
